<svg data-slopcamera-line-weight="1.5" xmlns="http://www.w3.org/2000/svg" width="509" height="429" viewBox="17.495 18.437 474.197 393.251"><defs><mask id="a" width="509" height="429" x="0" y="0" mask-type="luminance" maskContentUnits="userSpaceOnUse" maskUnits="userSpaceOnUse"><path d="M0 0h509v429H0z"/><path d="M44 74h382v310l-128.6.5-39.9.2H233l-15.8.1q-86 .2-172.1.2zm85.3 37.6c-5.1 2.5-9.2 6.3-13.3 10.4l-34 1c-5.7 3.4-5.7 3.4-8.2 6.5-1.6 2.2-2.8 4-3.8 6.5-.2 2.6-.2 2.6-.1 5.3v2.7l.1 2c2.8 5 2.8 5 6.4 9.4q2.6 2.1 5.6 3.6 3.9.3 7.9.3h2.3l7.4.3h5l12.4.4 1.4 1.2 1.9 1.7 1.8 1.6c2.4 1.9 4.6 3.5 7.4 4.8 4.6 1.3 9.2 1.3 13.9 1q4.4-.2 8.7-2 3.8-2 7-4.9l1.7-1.4 1.2-1h3.4l79-.1h11.8l31.4-.1h52l15.3-.1h17.3q3.4 0 6.8-.7 4.7-2 9-5 3-2.7 5-6 1.3-4.5 1-9.2V135c-2.4-4-4.8-7-8.3-10-2.3-1.4-4.2-2.2-6.7-3q-4.4-.4-8.8-.2H253.6l-9.6.1-80 .1-3.7-3.8c-3.5-3.3-7.8-5.5-12.1-7.5-6.4-1.4-12.7-1.6-18.9.9m0 86.3q-6.7 3.9-12.3 9.1v2H84c-7.5 4.2-7.5 4.2-10.4 7.7-1.6 2.2-1.6 2.2-2.6 4.3-.4 4.6-.6 9.4.5 14 .7 1.7.7 1.7 2.5 4q3.6 3.7 8 6 3.8.3 7.6.3H92l7.2.3h5l11.9.4 1.8 2.4c2 2.7 2 2.7 4.6 4.4l2.6 1.4 2.6 1.6c2.2 1.1 4 1.8 6.4 2.2 5 .4 9.9.5 14.8-.7 4.3-1.6 7.8-3.6 11.3-6.6l2.9-2.7v-2h3.4l79.1.2h11.8l31.3.1H321l19.8.1h30.1l2.5.1q4.6.2 9-1.3 3-1.4 5.7-3.2c2.1-2.3 2.1-2.3 3.5-4.7l2.5-4.3v-12l-2.4-3.7-1.4-2c-2.6-2.8-5.3-4.4-8.6-6.2-2.7-1.2-5-1.6-7.9-1.8h-6l-3.2-.1-9-.1-9.5-.2-16-.2q-10.2 0-20.2-.3-43.8-.7-87.7.4-17.7.4-35.4.3H180l-16-.1q-3.9-2.1-7.3-5c-2.7-2-5-3.4-8.2-4.5-6.2-1.3-13.1-1.7-19.2.4m-1.8 87.5c-3.8 2.4-7 5.6-10.5 8.6l-34 1c-5 3.2-5 3.2-8.8 7l-1.2 1.5c-1.2 1.7-1.2 1.7-2 4.5v11l2.6 3.8 1.5 2c2.3 2.8 2.3 2.8 7.9 6.2h34l2 4q4.5 4.4 10.2 7 5.4 2.1 11.2 2.4c3.6 0 6.5-1 9.8-2.1 3.9-1.7 6.7-3.6 9.8-6.3 1.8-1.1 1.8-1.1 4-2 2.3-.2 2.3-.2 4.8-.2h28.5l16.9.1h48.2q37 .2 74.1-.1h10.8l12.5-.2h4.4c7.9 0 7.9 0 15.6-1.4 3.4-1.5 6.3-3 9-5.6q3-3.6 5.2-7.6v-11c-1.6-2.9-3-5.4-5-8q-4.7-3.4-10-6c-1.7-.2-1.7-.2-3.6-.1h-7.6l-9-.1h-20.2l-20-.2-32.5-.1-31.5-.1h-11.7L162 293l-1.6-1.5-2.2-1.9-2.1-1.9c-2.3-1.8-4.3-3.3-7-4.3-7.6-1.6-14.5-.8-21.6 2"/><path d="M0 0h509v429H0zm371 33-2 1v2l-82.3-.3H275l-29.3-.2-43.4-.2h-5.6q-48.7 0-97.3-1l-5.6-.1-6.5-.2H80l-2 1-1 3-1.4 1Q59 50.7 42.4 62.9L41 64q-3.1 2.3-5.9 5v321l3 4h250.3l28.7.1c56 .1 56 .1 112-1.1l4.3-3.3 2.4-1.9q4.4-3.5 8.7-7.2 12.6-10.7 25.6-21c2-1.6 2-1.6 4-3.6V40l-3-4h-2l-19.4-.3-10-.2-9.5-.2h-3.7q-9.6 0-19.3-1-3-.4-6.3-.3-6.1 0-12.2-.5c-8.8-.7-8.8-.7-17.6-.5"/><path fill="#fdfdfd" d="M272.4 36.9H377l94.9.1 1 1v319c-9 7.8-9 7.8-13 11l-2.7 2.3-1.6 1.3-10.5 8.7-2.2 1.7-2 1.8-2 1.5-5.1 4.3-1.7 1.4-1.2 1-118.3.5H306c-146.2.6-146.2.6-216.6.6h-2.1L38 393l-1-1V67c15-11.5 15-11.5 21.7-16.2l2-1.4 4-2.8 7.6-5.3 2.7-1.9 2-1.4q97.7-1 195.4-1.1M80 45l-1.3 1-1.7 1.4-1.7 1.3Q65.1 57 54 64v2l159.2-.2h2.4l61.3-.2 35.6-.2h15.3L432 65l1.5-1.2 7-5.5 2.4-1.9q7.3-5.7 15.1-10.4v-2H208.9l-31.3-.1h-34q-31.8 0-63.6 1.1m385 4-5 4v303h2v-2l4-1q1.1-5 1.1-10.3V160.3L467 49zm-13 9-5 5v304l4-2 3-1V58zm-14 11-4 4c-1.2 12.5-1.1 25-1.1 37.5v172.8q-.1 46.8 1.1 93.7l6-2c.8-65.2.8-65.2 1.1-130.5v-2.4Q441 155.6 440 69zM44 73l-.1 7.4v2.1q-1 69-1 137.8v13.1Q43 309.7 44 386h214.9l24.6.1q71.3 0 142.5-1.1l1-1V73l-1-1H207l-25-.1q-69 0-138 1.1"/><path fill="#010101" d="M79 46h371l1 4-5 4.2-1.5 1.2Q439 59.8 433 64H57v-2l1.5-1 6.7-4.7 2.3-1.7 2.3-1.6 2-1.4q3.7-2.7 7.2-5.6"/><path fill="#f9f9f9" d="M142 109.6c4.5.6 8.2 2.1 12.3 4 3.4 1.8 6 3.7 8.7 6.4l2 3h217c6.8 4.5 6.8 4.5 8.8 7.1l1.2 1.5c1 1.4 1 1.4 2 3.4q.7 6-.5 12-1 2.7-2.5 5-2.7 2.9-6 5l-1.6 1c-2.3 1-3.8 1.2-6.3 1.3h-23l-13.9.1h-20l-32.6.2h-33.7l-9.7.1-81.2.3-1.6 1.5-2.2 1.9-2.1 1.9q-2.6 2.2-5.7 3.6c-5 1.6-10.4 1.7-15.7 1.5-2.5-.2-4.3-.6-6.7-1.3-5.2-2.5-7.8-5-12-9.1l-35-1c-6-4-6-4-8.2-6.5-1.6-2.2-2.8-4-3.8-6.5-.2-2.6-.2-2.6-.1-5.3V138l.1-2c4-7 4-7 6.4-9.4q2.7-2.1 5.6-3.6 3.8-.3 7.6-.3H92l7.2-.3h5l11.9-.4 1.4-1.5 2-1.9 1.8-1.9c2.9-2.7 5.8-4.3 9.4-5.9 4-1 7.4-1.3 11.4-1.2m-8 8.4q-4.2 2.1-8 5-4.2 4.5-7 10c-.4 5.5-.8 11.2.7 16.5q1.7 4 4.8 7 3.7 3.5 8.5 5.5 6.5.7 13 0c2.4-.6 4.2-1.4 6.3-2.7q4.4-3.5 7.7-8.3c1.5-2.8 1.5-2.8 2-6q.5-5 0-10c-1-3.6-2.7-6.5-4.6-9.6-3-3-5.9-4.7-9.6-6.5-3.1-1-5.7-1.2-9-1.2zm61.3 12.5H193l-24.1.5v2.8l.1 3.8v1.8c.1 4.6-.7 8.3-2.1 12.6h33q58.7 0 117.4-.5h2.3l60.3-.5 6-5v-10l-7-6h-68.1c-57.8-.1-57.8-.1-115.6.5M84 131l-5 5-1 1v7l1.9 3 1 1.6L82 150l2 1 6.3.1h11.9l9.8-.1v-20z"/><path fill="#f8f8f8" d="M144 282.6c3.1.4 5.5 1.2 8.4 2.5q5.4 3 9.6 7.8l1 1.1v2h220c6 4 6 4 7.7 6.1l3.3 5.9v11c-4.2 6.7-4.2 6.7-6 9l-5 3H163l-2 4q-3 3.4-7 6-5.3 2.6-11.3 3.3c-4 .1-7.5-.3-11.3-1.4-4-1.5-7.3-3.7-10.8-6.3-1.6-1.6-1.6-1.6-3.6-5.6H83c-6-4-6-4-8.2-6.6L71 319q-.3-5.5 0-11c1-3.3 1-3.3 3-6 2.8-2.7 5.5-5.3 9-7q3.8-.3 7.6-.3H93l7.2-.3h5l11.9-.4 1.6-1.4c5.7-5.2 5.7-5.2 9-7.2 5.5-2.2 10.5-3 16.4-2.8M130.3 293c-2.5 1.5-4.2 3-6.2 5q-3 3.8-5.1 8c-.4 5.5-.7 11.1.6 16.5q1.9 4 5 7.2 3.7 3.3 7.8 5.7 4.5 1 9.2 1 5-.9 9.4-3.2c3-1.8 4.8-3.5 7-6.2 1.6-2.3 2.8-4.2 3.6-6.9q1.3-6 .4-12.1-1.7-5.4-5-10-2.6-3-6-5c-2.8-1.3-5.2-1.9-8.3-2.3-4.7-.3-8.2.2-12.4 2.3m37.7 10 .5 2.3q.7 4.1.6 8.2v2.8q-.2 3.8-1.1 7.7l79.9.2h11.4l30.3.1h31.2l17.6.1h30.8l2.4.1q3.2 0 6.4-.5 3.7-1.6 7-4l1-2v-10l-4-4c-3.2-1-5.6-1.2-9-1.3h-1.7l-6-.3H363q-26.1-.6-52.2-.5H196q-14 0-28 1.1m-83 0-5 4-1 2v8l5 6h27l1-20zm50.1-106.3c4.6-.2 9-.2 13.5 1 4.2 1.7 7.5 4 10.9 7l4.5 4.3 219 1c6 4 6 4 7.7 6l3.3 5v12c-4.1 6.7-4.1 6.7-6 9-2 1.3-3.7 2.2-6 3q-4.5.5-9 .4h-18.1l-14 .1h-20l-32.5.2h-43.3l-81.1.3-1 1.3-1.3 1.6-1.4 1.6c-1.3 1.5-1.3 1.5-3.9 3.1l-2.5 1.2-2.6 1.2c-2.7 1.2-5 2-7.9 2.2-4.2.1-8 .1-12.2-1q-5.9-2-10.7-5.8C118 249 118 249 116 246l-34-1c-6-4-6-4-8.3-6.6C72 236 72 236 71 233v-12c2-3.2 3.7-5.7 6.5-8.2 2.2-1.6 4-2.8 6.5-3.8l7.6-.2h9.2l4.7.1 11.5.1.9-1.9 1.1-2.1c2-1.6 2-1.6 4.4-3.1l2.3-1.5 2.3-1.4 1.9-1.2c2.1-.8 2.1-.8 5.2-1.1M133 205c-3.8 2.2-7.3 4.2-10.3 7.4L121 215l-1.8 2.5c-.8 1.5-.8 1.5-1.2 3.5q-.3 6.5 0 13c3.3 6.3 3.3 6.3 7.9 11.7 2.7 2 5 3.2 8.1 4.3q6 .6 12 0 3.7-1.2 7-3.4c2.8-2.2 4.8-4.7 7-7.6l1.7-3.8q.5-4.5.4-9v-1.8l-.1-4.4q-2.6-4.7-6-9-3.6-3-8-5c-3.3-1.1-5.7-1.1-9.2-1zm35 11 .5 2.3q.8 4.3.6 8.7v3c-.1 3-.1 3-1.1 8h210c5-2.7 5-2.7 8-6v-9l-2.3-2.4-1.2-1.3c-1.9-1.6-3.2-2.4-5.5-3.3q-4.2-.4-8.4-.2H255l-9.3.1zm-85 2-4 5v8c1.8 3.2 1.8 3.2 4 6h28v-19z"/><path d="m169 304 79.1-.1h72.3l17.3-.1h33c4.8 0 8.8.6 13.3 2.2l2 2v10l-5 5H169z"/><path fill="#010101" d="M169 132h213l4 4v10l-4 4H169z"/><path d="M345 218h36l5 5v9l-3 3c-3.7 1.2-7.5 1.2-11.3 1.2h-2.3l-7.5.1h-5.5l-14.8.2-9.4.1q-81.6.7-163.2.4l1-17c4-.8 7-1.1 11.1-1h12.1l11.7.1H217l23.2.3 28.9.2 29.5.2h4.5l8.4.1 19.4.1 2 2 2.7-1.5 3.3-1.5c2.9-.2 2.9-.2 5 0z"/><path fill="#040404" d="M135.7 204.6c4.2 0 8 0 12.1 1.2q3.8 1.7 7.2 4.2 4.3 4.5 7 10c.4 5 .6 10.3-.5 15.2q-1 2.5-2.5 4.8l-1 1.6q-2.4 3.3-5.7 5.7-3 1.7-6.3 2.7-6 .9-12 0-3.7-1.1-7-3.3c-3-2.5-5-5.4-7-8.7l-2-4q-.6-6.5 0-13 1.7-5 5-9 3.5-3.6 7.8-6.1c2.2-.9 2.2-.9 4.9-1.3"/><path fill="#050505" d="M135 291q5-.5 10 0c3.6 1 6.5 2.7 9.6 4.6 3 3 4.7 6 6.5 9.7 1 2.7 1.3 5 1.4 7.8q-.2 4.8-1.7 9.2-1.5 3.4-3.4 6.4c-2.4 2.3-4.1 3.2-7 4.6L146 335l-2 1q-4.5.5-9 0-4.4-1.3-8-4c-3-2.8-5.3-5.6-7.2-9.3-1-3.4-1-6.4-1-10l.1-2 .1-4.7q2.6-4.7 6-9c3.1-2.5 6.5-4.2 10-6"/><path fill="#030303" d="M136.4 117.6c4 0 7.5 0 11.3 1.2q4 1.7 7.3 4.2 3.6 3.6 6 8c1.2 3.8 1.3 7.4 1.3 11.3-.3 2.8-.9 5-1.9 7.4q-1.6 3.4-4 6.1-3.6 3.2-7.7 5.4c-3.3 1-6 1-9.5 1l-1.8-.1-4.4-.1c-3.9-2.2-7.3-4.3-10.4-7.5-1.6-2.5-2.7-4.6-3.6-7.5q-.3-3.7-.1-7.3v-2l.1-4.7c5.6-9 5.6-9 8.6-11.4 3-2 5.3-3.4 8.8-4"/><path d="M450 86h1c1.4 10.6 1.1 21.2 1.1 31.8v176.1c0 10.5 0 20.8-1.1 31.1h-1l-1 8h-1V87z"/><path fill="#060606" d="M464 99h1v254l-4 2 1-253z"/><path fill="#0b0b0b" d="M84 131h28v20H84c-5-5-5-5-6-7v-7z"/><path fill="#070707" d="m85 303 6.1-.1h11.4l9.5.1-1 20H84l-5-6v-8l4-5z"/><path fill="#020202" d="M83 218h28v19H83l-3-3c-1-2.8-1.1-4.4-1-7.2V223z"/><path fill="#050505" d="M437 70h2v64l-2 1-1 6h-1V72z"/><path d="M436 134h3v66l-3-1c-1-3-1.1-5-1.1-8.3v-38.9c0-6 0-11.8 1.1-17.8"/><path fill="#0a0a0a" d="M464 50h1v49l-2 3-1 23h-1V52z"/><path fill="#414141" d="M438 69h2v218h-1z"/><path fill="#191919" d="M168 303h211l3 2-213-1-1 2z"/><path fill="#040404" d="m435 231 1 2h2l1 2 .1 5.4V271l-.1 20h-2l-1-5h-1z"/><path fill="#5c5c5c" d="M163 159h216v1H163z"/><path fill="#5d5d5d" d="M168 217h211v1l-211 1z"/><path fill="#686868" d="M465 49h1v183h-1z"/><path fill="#1c1c1c" d="M35 217h1v173h-1z"/><path fill="#2d2d2d" d="M182 45h171v1H182z"/><path fill="#333" d="M44 279h1v106h63v1H44z"/><path fill="#040404" d="M451 312h1v52l-4 2v-18q-.3-13.5 1-27h1z"/><path fill="#aeaeae" d="M447 202h1l1 165h-2z"/><path fill="#7a7a7a" d="M426 73h1v166h-1z"/><path fill="#dcdcdc" d="M182 302h165v1H182z"/><path fill="#6b6b6b" d="M452 202h1v161h-1z"/><path fill="#010101" d="M436 282h1v9h2v32l-2 1-2 4v-23.7l-.1-8.7V288q.2-3.1 1.1-6.1"/><path fill="#212121" d="M35 69h1v148h-1z"/><path fill="#c6c6c6" d="M108 385h147v1H108z"/><path fill="#a1a1a1" d="M473 209h1v147h-1z"/><path fill="#5a5a5a" d="M434 73h1v147h-1z"/><path fill="#7d7d7d" d="m168 322 144 1v1H168z"/><path fill="#6d6d6d" d="M426 239h1v145h-1z"/><path fill="#c4c4c4" d="M36 140h1v144h-1z"/><path fill="#656565" d="M452 59h1v143h-1z"/><path fill="#101010" d="M461 200h1v142h-1z"/><path fill="#ededed" d="M239 130h140v1H239z"/><path fill="#020202" d="m435 196 4 4v35l-1-2h-2l-1-2-.1-7.9v-14.7z"/><path fill="#b6b6b6" d="M447 63h1v139h-1z"/><path fill="#cfcfcf" d="M240 237h138v1H240z"/><path fill="#3b3b3b" d="M241 122h138v1H241z"/><path fill="#070707" d="M169 218h133v1h-2l-48.7.3-23.5.2-20.5.1-11 .1h-10.1l-3.8.1h-8c-2.5.1-2.5.1-5.4 1.2z"/><path fill="#c8c8c8" d="M460 149h1v136h-1z"/><path fill="#efefef" d="M466 114h1v135h-1z"/><path fill="#c4c4c4" d="M295 392h134v1H295z"/><path fill="#e6e6e6" d="M221 44h132v1H221z"/><path fill="#dcdcdc" d="M252 295h129v1H252z"/><path fill="#060606" d="M435 331h1v17h2c1 3.1 1.1 5.3 1.1 8.5v10.1l-.1 8.4-4 2z"/><path fill="#f5f5f5" d="M43 164h1v125h-1z"/><path fill="#434343" d="M255 150h125v1H255z"/><path fill="#f9f9f9" d="M37 86h1v125h-1z"/><path fill="#cbcbcb" d="M78 37h123v1H78z"/><path fill="#858585" d="M38 393h122v1H38z"/><path fill="#d9d9d9" d="M173 392h122v1H173z"/><path fill="#040404" d="M257 332h120v1l-31.9.4-14.8.2q-36.6.8-73.3-.6z"/><path fill="#575757" d="M465 232h1v121h-1z"/><path fill="#cbcbcb" d="M164 209h121v1H164z"/><path fill="#2d2d2d" d="M119 64h119v1H119z"/><path fill="#181818" d="M261 208h118v1H261z"/><path fill="#0f0f0f" d="M353 45h104l-5 5-2-2v-1l-97-1z"/><path fill="#030303" d="M324.3 218H345l-1 2-1.6.1c-3.2.4-6 .7-8.9 2l-1.5.9-1-2h-18.3l-6.7.1h-2q-7 0-14-1.1v-1c11.4-1.3 22.8-1.1 34.3-1"/><path fill="#040404" d="M297.3 206.4h2.4l30.3.6v1H215v-1q41-1.3 82.3-.6"/><path fill="#0f0f0f" d="M271 393h115v1H271z"/><path fill="#030303" d="M175 219h115v1H175z"/><path fill="#f2f2f2" d="M168 216h115v1H168z"/><path fill="#3b3b3b" d="M44 73h113v1H44z"/><path fill="#2b2b2b" d="M155 384h112v1H155z"/><path fill="#080808" d="M451 60h1v37h-1l-1-10h-2V62z"/><path fill="#1d1d1d" d="M160 393h111v1H160z"/><path fill="#5d5d5d" d="M164 245h111v1H164z"/><path fill="#c3c3c3" d="M163 331h109v1H163z"/><path fill="#0f0f0f" d="M163 294h109v1H163z"/><path fill="#f0f0f0" d="M113 44h108v1H113z"/><path fill="#bebebe" d="M36 284h1v107h-1z"/><path fill="#c3c3c3" d="M272 331h107v1H272z"/><path fill="#0d0d0d" d="M272 294h107v1H272z"/><path fill="#dbdbdb" d="M183 72h106v1H183z"/><path fill="#c9c9c9" d="M353 44h105l-1 2-104-1z"/><path fill="#151515" d="M79 36h106v1H79z"/><path fill="#6a6a6a" d="M275 245h105v1H275z"/><path fill="#6e6e6e" d="M265 36h104v1H265z"/><path fill="#0c0c0c" d="M323 73h103v1H323z"/><path fill="#424242" d="M80 45h102v1H80z"/><path fill="#9f9f9f" d="M369 36h102v1H369z"/><path fill="#080808" d="m382 236-1 1h-97v-1l37-.4 17.2-.2 16.6-.2 6.3-.1 8.8-.1h5.1l2.1-.1c1.9.1 1.9.1 4.9 1.1"/><path fill="#101010" d="m162 207 99 1v1h-98z"/><path fill="#f2f2f2" d="M466 249h1v99h-1z"/><path fill="#e3e3e3" d="M433 87h1v99h-1z"/><path fill="#070707" d="M163 332h94v1l-36.2.4-16.8.2-16.3.1-6.2.1-8.6.1h-7l-4.9.1z"/><path fill="#646464" d="M335 64h97v1h-97z"/><path fill="#4f4f4f" d="M238 64h97v1h-97z"/><path fill="#161616" d="M44 183h1v96h-1z"/><path fill="#b6b6b6" d="M460 53h1v96h-1z"/><path fill="#e6e6e6" d="M453 270h1v94l-2-1z"/><path fill="#d6d6d6" d="M285 209h95v1h-95z"/><path fill="#efefef" d="M283 216h94v1h-94z"/><path fill="#f2f2f2" d="M255 385h93v1h-93z"/><path fill="#e7e7e7" d="M163 295h89v1h-89z"/><path fill="#101010" d="m168 148 1 2h86v1h-87z"/><path fill="#373737" d="M439 287h1v88h-1z"/><path fill="#9c9c9c" d="M473 121h1v88h-1z"/><path fill="#d0d0d0" d="m54 64 87 1v1H54z"/><path fill="#777" d="M434 220h1v87h-1z"/><path fill="#191919" d="M237 73h86v1h-86z"/><path fill="#6a6a6a" d="M344 384h82v1h-82z"/><path fill="#f7f7f7" d="M440 201h1v82h-1z"/><path fill="#8e8e8e" d="M473 40h1v81h-1z"/><path fill="#020202" d="M436 323h3v28l-1-3h-2l-.6-9.7-.1-2.8-.2-2.6-.1-2.5q0-3.8 1-7.4"/><path fill="#f6f6f6" d="M433 186h1v80h-1z"/><path fill="#1a1a1a" d="M157 73h80v1h-80z"/><path fill="#3c3c3c" d="M185 36h80v1h-80z"/><path fill="#030303" d="m371 33 7.9-.1h2.3q8.1 0 16.2.9 4.4.3 8.8.2 4.4.1 8.8 1v1h-46v-2z"/><path fill="#c2c2c2" d="m167 150 78 1v1h-78z"/><path fill="#222" d="M44 104h1v79h-1z"/><path fill="#4b4b4b" d="M267 384h77v1h-77z"/><path fill="#c3c3c3" d="M165 123h76v1h-76z"/><path fill="#0c0c0c" d="M461 125h1v75h-1z"/><path fill="#dfdfdf" d="M453 127h1v75h-1z"/><path fill="#343434" d="M234 131h75v1h-75z"/><path fill="#d2d2d2" d="m168 236 72 1v1h-72z"/><path fill="#d7d7d7" d="M460 285h1l1 71h-2z"/><path fill="#cecece" d="M36 68h1v72h-1z"/><path fill="#292929" d="M309 131h71v1h-71z"/><path fill="#7c7c7c" d="M434 307h1v70h-1z"/><path fill="#eaeaea" d="M452 58h2v69h-1z"/><path fill="#bcbcbc" d="M356 72h70v1h-70z"/><path fill="#020202" d="M80 34h8.2l6.2.1h4.4l11.5.3 11.7.2 23 .4v1l-67 1v-2z"/><path fill="#e4e4e4" d="M453 202h1v68h-1z"/><path fill="#fcfcfc" d="M433 266h1v67h-1z"/><path fill="#070707" d="M174 122h67v1h-67z"/><path fill="#cecece" d="M289 72h67v1h-67z"/><path fill="#838383" d="M312 323h66v1h-66z"/><path fill="#f0f0f0" d="M117 72h66v1h-66z"/><path fill="#333" d="M169 131h65v1h-65z"/><path fill="#f5f5f5" d="M466 49h1v65h-1z"/><path fill="#141414" d="m56 63 63 1v1H55z"/></mask></defs><g fill="#2474d4" stroke="#2474d4" stroke-width="1.5" stroke-linejoin="round" vector-effect="non-scaling-stroke" mask="url(#a)"><path d="M454.2 34.9h3.3l5.8-.2c6 0 6 0 9 1.5 2.3 2.4 2.2 3.7 2.2 7.1v11l.1 10.7.1 11.7.1 22.7v21.2l.1 5.4.2 50.1.2 46 .2 47v26.5l.1 22.6v11.5l.1 12.4v3.7c0 5.4 0 9.2-3.6 13.4-5.1 4.6-5.1 4.6-7.8 6.7l-2.6 2-2.7 2.1-5.4 4.4-2.8 2.3-2.8 2.3-8.4 6.9c-2.7 2.1-2.7 2.1-5.3 4.7-4 2.9-6 3-10.9 3.1h-2.3l-8 .1h-5.8l-17.4.2h-12.4l-63.7.1H165L37 394c-2-4-2.3-5.3-2.3-9.5v-22.1l-.2-11.7v-28.5l-.1-8-.1-50v-14.5l-.3-46.6-.1-47.8-.1-26.8v-22.9l-.1-11.7V81.3l-.1-3.7c0-5.2.3-8.3 3.8-12.3q4.2-3.4 8.6-6.3l3.5-2.6 6.5-4.5q4-2.8 7.4-6.2c13.7-12.8 30-11.5 47.5-11.3h36.6l33.6.1h54.6q26.5.3 52.9.2h19.6l110.3.2zm-28.5 10H176.2L144 45h-34.7l-13.7.1h-4C82 45 77 47.7 70 54l-3.7 2.7-3 2.2-3 2.3L58 63v1q71 .5 142 .7h20.2l54 .4 55.5.2 34.2.2h23.5q6.8 0 13.5.2c24 .7 24 .7 44.3-10.5L450 50l3-3c-4.1-2-7.3-2.2-11.9-2.1zM462 52c-1.3 1.1-1.3 1.1-1.1 4v7.2l.1 2.8 2 1c1.1-3.3 1.1-5.7 1-9.2V52zm-14 18v296l3-2c.5-2.3.5-2.3.5-5.1l.1-3.4v-4l.2-4.2c.5-23.3.3-46.7.3-70V83.1c0-4.2 0-8.1-1.1-12.2zm-11 2c-3.3 15.2-2.1 31.3-2.1 46.8v151.5L435 376l4-2V72zm-99.6 1h-23.6l-9 .1h-21.4l-25 .2-65.4.2L45 74v311l160.8-.2H227l60.8-.3L426 384V74c-38.7-.8-38.7-.8-77.3-1zM462 106v68h1q1-19.8 1.1-39.6v-3.7q0-12.4-1.1-24.7zm0 72 1 4Zm0 59-1 115h4v-55l.1-4.9v-10.9c0-3.4 0-3.4-1.1-7.2v-16q.1-10.5-1-21z"/><path d="M159 115v2l4 2 2 3q4.2.5 8.4.3h17.9l13.7-.1h21.6l53.8-.3 41.8-.2h21.5l13.4-.1H372l2.4-.1c6 0 9.6 1.5 14.7 4.5 4.4 4.5 6.3 9.1 6.4 15.4-.1 5-1 7.8-4.4 11.6-6.1 5.6-10.5 7.3-18.7 7.2H180.8c-12.3-.7-12.3-.7-22.9 4.2L155 168c-7 3.7-14.2 4-22 3q-8-3-14.7-8c-3.9-2.3-6.2-2.5-10.6-2.5H94.8c-13.4-.1-13.4-.1-19.8-4.5-4.4-5.2-6.1-10.3-5.8-17 1.6-7.8 4.7-11.3 10.8-16 5.7-2.8 13.3-2 19.5-1.9h3l5.8.3c5.8.2 5.8.2 10.6-2.7l2.1-2.7c12.4-9.6 24.8-7.9 38-1m-34.8 10.8c-4.2 6.2-6.3 11.7-5.2 19.2 2 7 5.2 10.8 11 15 5 2.8 10 2.8 15.5 1.3 7-2.4 11.1-5.8 14.6-12.4 2.6-6.2 1.9-11.6-.1-17.9-2.8-6.2-7.9-9.5-14-12-8.7-1.6-15.5.5-21.8 6.8m-43.5 8.5c-2.2 3.5-2.3 5.6-1.7 9.7 1.7 3.7 1.7 3.7 5 6l6.1.1h11.4l9.5-.1v-18l-13.2-.3-3.8-.1c-7-.3-7-.3-13.3 2.7M170 132l-1 18c5.8.7 10.9 1.1 16.6 1.1h16.9l16.2-.1h13.5l32-.2 32.9-.2 28.2-.1h17l15.8-.1h5.8l8-.1h4.5c3.8 0 3.8 0 7.6-2.3 2-4 2.5-5.6 2-10-1.8-2.7-3-4.5-6-6l-8.2-.1H248.3zm-13.6 68.5c5.3 3.8 5.3 3.8 6.6 6.5h3.4l81.1.2 39.3.1 34.2.1 18 .1h23.4l8.5.1h2.5c6 0 11 1.1 15.5 5 5 6.2 6.7 10.3 6.1 18.4-1.9 5.7-4.7 11.2-10.1 14.2-4 1.1-7.7 1-11.8 1h-88.6l-39.4-.1-81.1-.1-2 4c-6.4 6-13 8.7-21.7 9.3-9.5-.6-16.3-3.7-23.3-10.3l-1-2h-3l-10.7-.3h-4.7l-6.7-.2h-4c-4.9-.6-9.1-1.8-12.6-5.2-4.3-6.7-4.9-11.6-4.3-19.3 1.8-5.7 5.4-8.4 10-12 3.1-1.6 6.2-1.1 9.6-1.1h14.5l11.9.1 2-4c11.1-9.6 25.4-12.5 38.4-4.5m-34.8 14.7c-3.6 6.4-3.8 14.2-2 21.2 2.6 6 7.7 9.7 13.4 12.6 8 .7 14.2.6 21-4 5.1-5 7.6-10.4 8.4-17.5-.8-7.1-3.3-12.5-8.4-17.5-11.6-8-24.2-5.6-32.4 5.2m-41.7 7c-1.2 3.8-1 6 .1 9.8 1.7 3 1.7 3 5 5q6.6.8 13.3.3h3.7l9-.3-.5-2.8q-.7-4.8-.6-9.6v-3.2l.1-2.4c-8.4-2.1-23.5-3.7-30 3.2m90-4.2v18c5 .8 9.3 1.1 14.3 1.1H201l16 .1h77.5l28 .1H373c4.3-.3 7.2-1.2 11-3.3 2.2-4.4 2.1-5.4 1-10-1.7-4.3-1.7-4.3-6-6q-4.2-.3-8.4-.2h-85l-37.8.1zm-14 68 1.3 1.9c3.1 4.2 5.6 6 10.8 6.8q8.3.5 16.4.2h6.3l13.6-.1 21.5-.2 34-.2 60.8-.4 21.4-.1h13.3l6.1-.1 8.4-.1h2.5c6.1 0 11.8 1 16.6 5 5 6.3 6.6 10.2 6 18.3-1.9 5.6-4.4 10-9 13.6-4 1.9-7.6 1.8-11.9 1.8H356l-13.9-.1h-84.3l-34.4-.1H173l-2.5-.1c-4.7 0-7.2 1-10.4 4.3l-1.6 1.9c-4 4.3-8.7 5.5-14.4 6.1-8.4.3-15.4-.2-22.2-5.4l-2.2-3.1c-3.4-3.5-6.7-3.4-11.4-3.6h-8.8l-9 .1h-3.9q-7.3-.8-12.4-6.2c-3.5-5.8-5-10.8-4-17.5 1.7-6.4 5.3-10 10.7-13.7 3.6-1.2 6.5-1.1 10.3-1.1h11.2c10.1.4 10.1.4 18.8-3.8l2.7-3.1c10.1-6.3 21.6-7 32-1m-32.4 13.4c-4 6.6-5.7 12-4.6 19.6 2.1 7.2 7 11.7 13.4 15.4 7.9 1.9 14.6.5 21.6-3.4 2.5-2.2 2.5-2.2 4-5l1.8-2.6q3.8-10.6-.9-20.8C156 297 152 294 146 292c-8.8-1.1-16 1.2-22.4 7.4m-42.3 6.8c-2 4.4-1.8 7-1.3 11.8 2.2 3 3.4 3.9 7 4.6q12 .6 24-.6v-17c-5.2-1.3-10.2-1.3-15.5-1.4h-3.2c-6-.3-6-.3-11 2.6M170 304v19l81 .2h70.5l17.3.1h33c4.8 0 8.1-.7 12.2-3.3 2.4-3 2.4-3 2-6.9-1.2-4.8-2.1-6.1-6-9.1-3-.5-5.5-.7-8.6-.6h-34.3l-17.6.1-33.4.1-38 .1z"/></g></svg>